<svg width="40" height="41" viewBox="0 0 40 41" fill="none" xmlns="http://www.w3.org/2000/svg">
<path d="M12 41H8L8 29L12 29L12 41Z" fill="white"/>
<path d="M12 29L12 33H5.24537e-07L0 29L12 29Z" fill="white"/>
<path d="M28 8.9018e-07L32 1.90798e-07V12L28 12L28 8.9018e-07Z" fill="white"/>
<path d="M28 12V8L40 8V12L28 12Z" fill="white"/>
<path d="M40 29V33H28V29H40Z" fill="white"/>
<path d="M28 29H32V41H28V29Z" fill="white"/>
<path d="M1.31932e-06 12L1.14447e-06 8L12 8V12L1.31932e-06 12Z" fill="white"/>
<path d="M12 12H8L8 3.49691e-07L12 0L12 12Z" fill="white"/>
</svg>
