<svg width="58" height="60" viewBox="0 0 58 60" fill="none" xmlns="http://www.w3.org/2000/svg">
<path d="M1.15835e-06 16.7568H27.2162V41.1081H1.15835e-06V16.7568Z" fill="white"/>
<path d="M0 27.5L29.0068 4.55032L29.0068 50.4497L0 27.5Z" fill="white"/>
<path d="M34.3784 51.1351C47.0361 51.1351 57.2973 40.874 57.2973 28.2162C57.2973 15.5584 47.0361 5.2973 34.3784 5.2973V9.59459C44.6628 9.59459 53 17.9318 53 28.2162C53 38.5007 44.6628 46.8378 34.3784 46.8378V51.1351Z" fill="white"/>
<path d="M34.3784 39.6757C40.7073 39.6757 45.8378 34.5451 45.8378 28.2162C45.8378 21.8873 40.7073 16.7568 34.3784 16.7568V39.6757Z" fill="white"/>
<path d="M3.43823 6.38279L9.82741 1.38638L50.9085 53.9189L44.5193 58.9153L3.43823 6.38279Z" fill="white" stroke="black"/>
</svg>
