<svg width="73" height="67" viewBox="0 0 73 67" fill="none" xmlns="http://www.w3.org/2000/svg">
<mask id="path-1-outside-1_302_3218" maskUnits="userSpaceOnUse" x="0" y="0" width="64" height="67" fill="black">
<rect fill="white" width="64" height="67"/>
<path fill-rule="evenodd" clip-rule="evenodd" d="M50.5396 59.998C45.6274 63.1633 39.7782 65 33.5 65C16.103 65 2 50.897 2 33.5C2 16.103 16.103 2 33.5 2C44.7728 2 54.6625 7.92143 60.2285 16.8235H55.7374C50.6666 10.0726 42.5932 5.70588 33.5 5.70588C18.1498 5.70588 5.70591 18.1497 5.70591 33.5C5.70591 48.8503 18.1498 61.2941 33.5 61.2941C38.7505 61.2941 43.661 59.8382 47.8497 57.3082L50.5396 59.998Z"/>
</mask>
<path fill-rule="evenodd" clip-rule="evenodd" d="M50.5396 59.998C45.6274 63.1633 39.7782 65 33.5 65C16.103 65 2 50.897 2 33.5C2 16.103 16.103 2 33.5 2C44.7728 2 54.6625 7.92143 60.2285 16.8235H55.7374C50.6666 10.0726 42.5932 5.70588 33.5 5.70588C18.1498 5.70588 5.70591 18.1497 5.70591 33.5C5.70591 48.8503 18.1498 61.2941 33.5 61.2941C38.7505 61.2941 43.661 59.8382 47.8497 57.3082L50.5396 59.998Z" fill="white"/>
<path d="M50.5396 59.998L51.6229 61.6792L53.7065 60.3365L51.9538 58.5838L50.5396 59.998ZM60.2285 16.8235V18.8235H63.8377L61.9243 15.7632L60.2285 16.8235ZM55.7374 16.8235L54.1382 18.0247L54.7383 18.8235H55.7374V16.8235ZM47.8497 57.3082L49.2639 55.8939L48.1564 54.7864L46.8157 55.5962L47.8497 57.3082ZM49.4562 58.3168C44.8573 61.2803 39.3825 63 33.5 63V67C40.1738 67 46.3974 65.0464 51.6229 61.6792L49.4562 58.3168ZM33.5 63C17.2076 63 4 49.7924 4 33.5H0C0 52.0015 14.9985 67 33.5 67V63ZM4 33.5C4 17.2076 17.2076 4 33.5 4V0C14.9985 0 0 14.9985 0 33.5H4ZM33.5 4C44.0548 4 53.3169 9.54174 58.5327 17.8838L61.9243 15.7632C56.0082 6.30112 45.4907 0 33.5 0V4ZM60.2285 14.8235H55.7374V18.8235H60.2285V14.8235ZM57.3365 15.6224C51.9042 8.39021 43.2489 3.70588 33.5 3.70588V7.70588C41.9376 7.70588 49.4289 11.7551 54.1382 18.0247L57.3365 15.6224ZM33.5 3.70588C17.0452 3.70588 3.70591 17.0452 3.70591 33.5H7.70591C7.70591 19.2543 19.2543 7.70588 33.5 7.70588V3.70588ZM3.70591 33.5C3.70591 49.9548 17.0452 63.2941 33.5 63.2941V59.2941C19.2543 59.2941 7.70591 47.7457 7.70591 33.5H3.70591ZM33.5 63.2941C39.1251 63.2941 44.3918 61.7333 48.8838 59.0201L46.8157 55.5962C42.9301 57.9432 38.3759 59.2941 33.5 59.2941V63.2941ZM51.9538 58.5838L49.2639 55.8939L46.4355 58.7224L49.1254 61.4122L51.9538 58.5838Z" fill="white" mask="url(#path-1-outside-1_302_3218)"/>
<path d="M61.4474 28.2734L45.9364 16.0589L64.2699 8.73317L61.4474 28.2734Z" fill="white"/>
<path d="M27.7493 23.2171V22.2171H26.7493H26.4598H26.279L26.1097 22.2804L18.944 24.9585L18.2941 25.2014V25.8952V27.531V28.9689L19.6421 28.4685L24.0267 26.8409V44.3812V45.3812H25.0267H26.7493H27.7493V44.3812V23.2171ZM48.3759 39.865L48.3764 39.863C48.6911 38.6147 48.841 37.1828 48.841 35.5797V32.0331C48.841 30.7495 48.741 29.5793 48.5334 28.5286C48.3368 27.4855 48.0367 26.5495 47.6196 25.7352C47.2138 24.9146 46.6958 24.2134 46.0554 23.6537C45.4333 23.1015 44.7159 22.6897 43.9133 22.4173C43.119 22.1348 42.2632 22 41.3557 22C40.222 22 39.1711 22.2053 38.2224 22.6388C37.2591 23.0692 36.4486 23.7301 35.7943 24.5987L35.7943 24.5987L35.7893 24.6054C35.1471 25.473 34.6759 26.5322 34.3525 27.7526L34.3525 27.7526L34.3505 27.7604C34.0346 28.9924 33.8849 30.4215 33.8849 32.0331V35.5797C33.8849 36.8654 33.9852 38.0413 34.1931 39.1017L34.1935 39.1035C34.4004 40.1485 34.706 41.0879 35.122 41.909C35.5348 42.7237 36.0468 43.4266 36.6664 44.0003L36.6735 44.0068L36.6806 44.0132C37.3111 44.5749 38.0303 44.9947 38.831 45.2692C39.624 45.5411 40.4784 45.6707 41.3847 45.6707C42.5272 45.6707 43.5813 45.4657 44.5248 45.0288C45.4854 44.5885 46.2906 43.923 46.9353 43.0526C47.5899 42.1722 48.062 41.0994 48.3759 39.865ZM44.9283 29.3687L44.9282 29.3687L44.9303 29.3806C45.054 30.096 45.1183 30.9065 45.1183 31.8159V35.7824C45.1183 36.9067 45.026 37.8881 44.85 38.7334C44.6756 39.5614 44.4183 40.222 44.0982 40.7382C43.7844 41.2347 43.413 41.5872 42.988 41.8253C42.5725 42.0488 42.0492 42.1797 41.3847 42.1797C40.8708 42.1797 40.4321 42.0977 40.0555 41.9502C39.6912 41.7944 39.3665 41.5699 39.0772 41.2684C38.7882 40.9475 38.5281 40.5398 38.3061 40.03C38.0847 39.5215 37.912 38.9191 37.7974 38.2138C37.6819 37.4938 37.622 36.6844 37.622 35.7824V31.8159C37.622 30.6727 37.7143 29.6891 37.889 28.8567C38.073 28.0267 38.3338 27.3855 38.6472 26.9039L38.6472 26.9039L38.6511 26.8979C38.9631 26.4109 39.3307 26.0743 39.7502 25.8543L39.7502 25.8543L39.7555 25.8515C40.1884 25.6211 40.7126 25.491 41.3557 25.491C41.8866 25.491 42.3257 25.5754 42.6894 25.7223L42.7001 25.7266L42.7108 25.7306C43.0817 25.8706 43.3986 26.0808 43.6711 26.3673L43.6711 26.3673L43.6799 26.3764C43.967 26.6707 44.2212 27.0542 44.4312 27.5467C44.6437 28.0454 44.8128 28.6492 44.9283 29.3687Z" fill="white" stroke="white" stroke-width="2"/>
</svg>
