<svg width="73" height="67" viewBox="0 0 73 67" fill="none" xmlns="http://www.w3.org/2000/svg">
<mask id="path-1-outside-1_302_3207" maskUnits="userSpaceOnUse" x="8.03229" y="0" width="64" height="67" fill="black">
<rect fill="white" x="8.03229" width="64" height="67"/>
<path fill-rule="evenodd" clip-rule="evenodd" d="M21.4927 59.998C26.4049 63.1633 32.2541 65 38.5323 65C55.9293 65 70.0323 50.897 70.0323 33.5C70.0323 16.103 55.9293 2 38.5323 2C27.2595 2 17.3698 7.92143 11.8038 16.8235H16.2949C21.3657 10.0726 29.439 5.70588 38.5323 5.70588C53.8825 5.70588 66.3264 18.1497 66.3264 33.5C66.3264 48.8503 53.8825 61.2941 38.5323 61.2941C33.2818 61.2941 28.3713 59.8382 24.1826 57.3082L21.4927 59.998Z"/>
</mask>
<path fill-rule="evenodd" clip-rule="evenodd" d="M21.4927 59.998C26.4049 63.1633 32.2541 65 38.5323 65C55.9293 65 70.0323 50.897 70.0323 33.5C70.0323 16.103 55.9293 2 38.5323 2C27.2595 2 17.3698 7.92143 11.8038 16.8235H16.2949C21.3657 10.0726 29.439 5.70588 38.5323 5.70588C53.8825 5.70588 66.3264 18.1497 66.3264 33.5C66.3264 48.8503 53.8825 61.2941 38.5323 61.2941C33.2818 61.2941 28.3713 59.8382 24.1826 57.3082L21.4927 59.998Z" fill="white"/>
<path d="M21.4927 59.998L20.4094 61.6792L18.3258 60.3365L20.0785 58.5838L21.4927 59.998ZM11.8038 16.8235V18.8235H8.19458L10.108 15.7632L11.8038 16.8235ZM16.2949 16.8235L17.8941 18.0247L17.294 18.8235H16.2949V16.8235ZM24.1826 57.3082L22.7683 55.8939L23.8759 54.7864L25.2166 55.5962L24.1826 57.3082ZM22.576 58.3168C27.175 61.2803 32.6498 63 38.5323 63V67C31.8585 67 25.6349 65.0464 20.4094 61.6792L22.576 58.3168ZM38.5323 63C54.8247 63 68.0323 49.7924 68.0323 33.5H72.0323C72.0323 52.0015 57.0338 67 38.5323 67V63ZM68.0323 33.5C68.0323 17.2076 54.8247 4 38.5323 4V0C57.0338 0 72.0323 14.9985 72.0323 33.5H68.0323ZM38.5323 4C27.9775 4 18.7154 9.54174 13.4996 17.8838L10.108 15.7632C16.0241 6.30112 26.5416 0 38.5323 0V4ZM11.8038 14.8235H16.2949V18.8235H11.8038V14.8235ZM14.6958 15.6224C20.1281 8.39021 28.7834 3.70588 38.5323 3.70588V7.70588C30.0947 7.70588 22.6034 11.7551 17.8941 18.0247L14.6958 15.6224ZM38.5323 3.70588C54.9871 3.70588 68.3264 17.0452 68.3264 33.5H64.3264C64.3264 19.2543 52.778 7.70588 38.5323 7.70588V3.70588ZM68.3264 33.5C68.3264 49.9548 54.9871 63.2941 38.5323 63.2941V59.2941C52.778 59.2941 64.3264 47.7457 64.3264 33.5H68.3264ZM38.5323 63.2941C32.9072 63.2941 27.6405 61.7333 23.1485 59.0201L25.2166 55.5962C29.1021 57.9432 33.6564 59.2941 38.5323 59.2941V63.2941ZM20.0785 58.5838L22.7683 55.8939L25.5968 58.7224L22.9069 61.4122L20.0785 58.5838Z" fill="white" mask="url(#path-1-outside-1_302_3207)"/>
<path d="M10.5849 28.2734L26.096 16.0589L7.7624 8.73317L10.5849 28.2734Z" fill="white"/>
<path d="M35.1317 22.8359V21.8359H34.1317H33.8422H33.6614L33.4921 21.8992L26.3264 24.5773L25.6765 24.8202V25.514V27.1498V28.5877L27.0245 28.0873L31.4091 26.4597V44V45H32.4091H34.1317H35.1317V44V22.8359ZM55.7583 39.4838L55.7588 39.4818C56.0735 38.2335 56.2234 36.8016 56.2234 35.1985V31.6519C56.2234 30.3683 56.1234 29.1981 55.9158 28.1474C55.7192 27.1043 55.4191 26.1683 55.002 25.354C54.5962 24.5333 54.0782 23.8322 53.4378 23.2725C52.8157 22.7203 52.0983 22.3085 51.2957 22.0361C50.5014 21.7536 49.6456 21.6188 48.7381 21.6188C47.6044 21.6188 46.5535 21.8241 45.6048 22.2576C44.6415 22.688 43.831 23.3489 43.1767 24.2175L43.1767 24.2175L43.1717 24.2242C42.5294 25.0918 42.0583 26.151 41.7349 27.3714L41.7349 27.3714L41.7329 27.3791C41.417 28.6112 41.2673 30.0403 41.2673 31.6519V35.1985C41.2673 36.4842 41.3676 37.6601 41.5755 38.7204L41.5758 38.7223C41.7828 39.7673 42.0884 40.7067 42.5044 41.5278C42.9172 42.3425 43.4292 43.0454 44.0488 43.6191L44.0558 43.6256L44.063 43.632C44.6935 44.1937 45.4127 44.6135 46.2134 44.888C47.0064 45.1599 47.8607 45.2895 48.767 45.2895C49.9096 45.2895 50.9637 45.0845 51.9072 44.6476C52.8678 44.2073 53.6729 43.5418 54.3177 42.6714C54.9723 41.791 55.4444 40.7182 55.7583 39.4838ZM52.3107 28.9875L52.3106 28.9875L52.3127 28.9994C52.4363 29.7148 52.5007 30.5253 52.5007 31.4347V35.4012C52.5007 36.5255 52.4084 37.5069 52.2324 38.3522C52.058 39.1802 51.8006 39.8408 51.4806 40.3569C51.1668 40.8535 50.7954 41.206 50.3704 41.4441C49.9549 41.6676 49.4316 41.7985 48.767 41.7985C48.2532 41.7985 47.8145 41.7165 47.4379 41.569C47.0736 41.4132 46.7489 41.1887 46.4596 40.8872C46.1706 40.5663 45.9105 40.1586 45.6885 39.6488C45.467 39.1403 45.2944 38.5379 45.1797 37.8326C45.0643 37.1126 45.0044 36.3032 45.0044 35.4012V31.4347C45.0044 30.2915 45.0966 29.3079 45.2714 28.4754C45.4554 27.6455 45.7162 27.0043 46.0296 26.5227L46.0296 26.5227L46.0335 26.5167C46.3454 26.0297 46.7131 25.6931 47.1326 25.4731L47.1326 25.4731L47.1379 25.4703C47.5708 25.2399 48.095 25.1098 48.7381 25.1098C49.269 25.1098 49.708 25.1942 50.0718 25.3411L50.0825 25.3454L50.0932 25.3494C50.4641 25.4894 50.781 25.6996 51.0535 25.9861L51.0535 25.9861L51.0623 25.9952C51.3494 26.2895 51.6036 26.673 51.8136 27.1655C52.0261 27.6642 52.1952 28.268 52.3107 28.9875Z" fill="white" stroke="white" stroke-width="2"/>
</svg>
