<svg width="58" height="48" viewBox="0 0 58 48" fill="none" xmlns="http://www.w3.org/2000/svg">
<path d="M1.15835e-06 12.7568H27.2162V37.1081H1.15835e-06V12.7568Z" fill="white"/>
<path d="M0 23.5L29.0068 0.550323L29.0068 46.4497L0 23.5Z" fill="white"/>
<path d="M34.3784 47.1351C47.0361 47.1351 57.2973 36.874 57.2973 24.2162C57.2973 11.5584 47.0361 1.2973 34.3784 1.2973V5.59459C44.6628 5.59459 53 13.9318 53 24.2162C53 34.5007 44.6628 42.8378 34.3784 42.8378V47.1351Z" fill="white"/>
<path d="M34.3784 35.6757C40.7073 35.6757 45.8378 30.5451 45.8378 24.2162C45.8378 17.8873 40.7073 12.7568 34.3784 12.7568V35.6757Z" fill="white"/>
</svg>
