<svg width="340" height="339" viewBox="0 0 340 339" fill="none" xmlns="http://www.w3.org/2000/svg">
<rect y="0.0733032" width="338" height="338" rx="33" fill="#5F43EA"/>
<path d="M178.945 183.399H124.014L123.721 149.708H168.252C176.26 149.708 182.656 148.829 187.441 147.071C192.227 145.216 195.693 142.53 197.842 139.015C200.088 135.499 201.211 131.105 201.211 125.831C201.211 119.776 200.088 114.894 197.842 111.183C195.596 107.472 192.031 104.786 187.148 103.126C182.363 101.368 176.162 100.489 168.545 100.489H143.35V274.073H91.9336V60.7921H168.545C181.729 60.7921 193.496 62.0128 203.848 64.4542C214.199 66.7979 222.988 70.4112 230.215 75.294C237.539 80.1768 243.105 86.3292 246.914 93.751C250.723 101.075 252.627 109.718 252.627 119.679C252.627 128.37 250.771 136.524 247.061 144.142C243.35 151.759 237.148 157.96 228.457 162.745C219.863 167.433 208.096 169.874 193.154 170.069L178.945 183.399ZM176.895 274.073H111.562L129.141 234.523H176.895C183.926 234.523 189.541 233.448 193.74 231.3C198.037 229.054 201.113 226.124 202.969 222.511C204.922 218.8 205.898 214.698 205.898 210.206C205.898 204.737 204.971 200.001 203.115 195.997C201.357 191.993 198.525 188.917 194.619 186.769C190.713 184.523 185.488 183.399 178.945 183.399H135.732L136.025 149.708H187.734L199.746 163.185C214.004 162.599 225.283 164.601 233.584 169.19C241.982 173.78 247.988 179.835 251.602 187.355C255.215 194.874 257.021 202.735 257.021 210.939C257.021 224.903 253.994 236.573 247.939 245.948C241.982 255.323 233.047 262.355 221.133 267.042C209.219 271.73 194.473 274.073 176.895 274.073Z" fill="white"/>
<g filter="url(#filter0_d_3_17)">
<path d="M338.28 0.0145179L338.294 83.0366L255.258 0L338.28 0.0145179Z" fill="#EACF43"/>
</g>
<path d="M305.324 25.7178V14.0108H309.426V25.7178C309.426 26.8585 309.164 27.8467 308.641 28.6827C308.125 29.5186 307.422 30.1671 306.531 30.628C305.648 31.0811 304.656 31.3077 303.555 31.3077C302.414 31.3077 301.398 31.1163 300.508 30.7335C299.625 30.3506 298.93 29.7608 298.422 28.9639C297.922 28.1671 297.672 27.1514 297.672 25.9171H301.797C301.797 26.4952 301.863 26.9483 301.996 27.2764C302.129 27.5967 302.324 27.8233 302.582 27.9561C302.848 28.0811 303.172 28.1436 303.555 28.1436C303.93 28.1436 304.246 28.0499 304.504 27.8624C304.77 27.6671 304.973 27.3897 305.113 27.0303C305.254 26.6631 305.324 26.2256 305.324 25.7178ZM320.828 26.5381C320.828 26.2725 320.789 26.0342 320.711 25.8233C320.633 25.6046 320.488 25.4014 320.277 25.2139C320.066 25.0264 319.762 24.8389 319.363 24.6514C318.973 24.4561 318.457 24.253 317.816 24.0421C317.066 23.7921 316.344 23.5108 315.648 23.1983C314.953 22.878 314.332 22.5069 313.785 22.085C313.238 21.6553 312.805 21.1553 312.484 20.585C312.164 20.0069 312.004 19.335 312.004 18.5694C312.004 17.835 312.168 17.1749 312.496 16.5889C312.824 15.9952 313.281 15.4913 313.867 15.0772C314.461 14.6553 315.156 14.335 315.953 14.1163C316.75 13.8897 317.621 13.7764 318.566 13.7764C319.816 13.7764 320.918 13.9952 321.871 14.4327C322.832 14.8624 323.582 15.4756 324.121 16.2725C324.668 17.0616 324.941 17.9952 324.941 19.0733H320.852C320.852 18.6436 320.762 18.2647 320.582 17.9366C320.41 17.6085 320.148 17.3506 319.797 17.1631C319.445 16.9756 319.004 16.8819 318.473 16.8819C317.957 16.8819 317.523 16.96 317.172 17.1163C316.82 17.2725 316.555 17.4835 316.375 17.7491C316.195 18.0069 316.105 18.2921 316.105 18.6046C316.105 18.8624 316.176 19.0967 316.316 19.3077C316.465 19.5108 316.672 19.7022 316.938 19.8819C317.211 20.0616 317.539 20.2335 317.922 20.3975C318.312 20.5616 318.75 20.7217 319.234 20.878C320.141 21.1671 320.945 21.4913 321.648 21.8506C322.359 22.2022 322.957 22.6046 323.441 23.0577C323.934 23.503 324.305 24.0108 324.555 24.5811C324.812 25.1514 324.941 25.796 324.941 26.5147C324.941 27.2803 324.793 27.96 324.496 28.5538C324.199 29.1475 323.773 29.6514 323.219 30.0655C322.664 30.4717 322 30.7803 321.227 30.9913C320.453 31.2022 319.59 31.3077 318.637 31.3077C317.762 31.3077 316.898 31.1983 316.047 30.9796C315.203 30.753 314.438 30.4092 313.75 29.9483C313.062 29.4796 312.512 28.8819 312.098 28.1553C311.691 27.421 311.488 26.5499 311.488 25.5421H315.613C315.613 26.0421 315.68 26.4639 315.812 26.8077C315.945 27.1514 316.141 27.4288 316.398 27.6397C316.656 27.8428 316.973 27.9913 317.348 28.085C317.723 28.171 318.152 28.2139 318.637 28.2139C319.16 28.2139 319.582 28.1397 319.902 27.9913C320.223 27.835 320.457 27.6319 320.605 27.3819C320.754 27.1241 320.828 26.8428 320.828 26.5381Z" fill="black"/>
<defs>
<filter id="filter0_d_3_17" x="246.258" y="-1" width="93.0366" height="93.0366" filterUnits="userSpaceOnUse" color-interpolation-filters="sRGB">
<feFlood flood-opacity="0" result="BackgroundImageFix"/>
<feColorMatrix in="SourceAlpha" type="matrix" values="0 0 0 0 0 0 0 0 0 0 0 0 0 0 0 0 0 0 127 0" result="hardAlpha"/>
<feOffset dx="-4" dy="4"/>
<feGaussianBlur stdDeviation="2.5"/>
<feComposite in2="hardAlpha" operator="out"/>
<feColorMatrix type="matrix" values="0 0 0 0 0 0 0 0 0 0 0 0 0 0 0 0 0 0 0.37 0"/>
<feBlend mode="normal" in2="BackgroundImageFix" result="effect1_dropShadow_3_17"/>
<feBlend mode="normal" in="SourceGraphic" in2="effect1_dropShadow_3_17" result="shape"/>
</filter>
</defs>
</svg>
