<svg width="244" height="256" viewBox="0 0 244 256" fill="none" xmlns="http://www.w3.org/2000/svg">
<path d="M50.2499 37.6247C51.1215 35.5555 50.3915 33.3123 50.9818 31.2332C51.3173 30.0517 51.469 28.7272 52.615 27.901C53.0661 27.5757 53.1242 26.988 53.3241 26.4972C53.4786 26.1176 53.4409 25.5168 54.1282 25.6077C54.8299 25.7005 54.7025 26.3381 54.566 26.6246C54.0908 27.6222 54.5297 28.5573 54.5975 29.5159C54.7531 31.715 54.4837 33.8996 54.3982 36.091C54.3563 37.1655 55.2852 37.6497 56.0571 38.0638C56.5583 38.3327 56.9388 37.7131 57.3445 37.4134C58.8026 36.3368 59.6378 34.848 60.2725 33.1962C60.5684 32.4261 61.1763 31.9553 62.0387 32.1436C62.8704 32.3251 63.0299 32.9754 63.0914 33.7662C63.1289 34.2474 63.0376 34.9281 63.5761 35.2195C64.512 35.726 65.3723 35.2432 66.1917 34.8182C66.3071 34.7583 66.2978 34.4029 66.2976 34.1842C66.2972 33.482 66.6404 33.0029 67.295 32.8509C67.9545 32.6978 68.541 32.892 68.8583 33.5708C69.1393 34.1719 69.3857 34.7823 69.3784 35.4647C69.3725 36.0207 69.7837 36.2789 70.202 36.4427C70.6448 36.6162 70.7933 36.1799 70.9705 35.8975C71.9588 34.3229 72.8268 33.9191 73.8867 34.5913C74.8661 35.2124 74.4615 36.3003 74.6279 37.1633C74.7506 37.7992 74.8638 38.3626 75.2659 38.873C75.427 39.0774 75.5164 38.9732 75.5345 38.8399C75.7413 37.3152 76.8411 36.0749 77.0298 34.6041C77.2323 33.0266 78.7417 32.2057 78.9304 30.678C78.9791 30.2832 79.4194 30.0594 79.8752 30.1771C80.309 30.2891 80.1823 30.6663 80.1899 30.9598C80.2536 33.3937 79.8977 35.7616 79.0797 38.0595C78.9315 38.4758 79.2754 38.2735 79.3833 38.23C79.9649 37.996 80.5703 38.0726 81.17 38.0452C81.987 38.0077 82.7783 38.0568 83.0242 39.0151C83.2697 39.9719 82.6643 40.649 81.93 40.9882C80.514 41.6424 79.2645 42.456 78.2757 43.6725C77.8139 44.2405 78.0797 44.8701 78.0817 45.4654C78.0825 45.6763 78.3284 45.4332 78.4571 45.3826C79.4063 45.0097 80.2056 44.2488 81.3403 44.3491C81.8664 44.3956 82.2764 44.583 82.5366 45.0157C83.2928 46.2736 83.7855 47.5793 83.7882 49.1134C83.7933 51.991 83.7367 54.8252 82.5734 57.538C82.3874 57.9719 82.0329 58.8288 82.532 59.0858C83.2285 59.4443 83.7504 58.7811 84.1527 58.188C84.443 57.7601 84.762 57.3467 85.1076 56.9624C87.254 54.5754 87.6878 51.564 87.635 48.6136C87.566 44.7551 87.4144 40.8812 89.7736 37.6691C90.7872 36.2888 91.8872 34.8558 93.1524 33.6272C93.4023 33.3846 93.7776 33.4026 94.0159 33.6086C94.3362 33.8855 94.2187 34.2729 94.0963 34.639C93.2802 37.0791 92.3658 39.4941 91.7163 41.9783C91.4539 42.9819 91.5203 44.1214 91.9162 45.2303C92.3178 46.355 91.8926 47.6445 92.3897 48.8337C92.5812 49.2918 92.6578 49.8343 92.9238 50.2755C93.3743 51.0223 94.4766 50.7082 95.0731 49.5673C96.8699 46.1303 98.7481 42.6945 98.9971 38.7191C99.0848 37.3189 98.6837 35.8952 98.6337 34.4777C98.5251 31.3965 98.6097 28.3048 98.3989 25.2323C98.2648 23.2789 98.0413 21.3385 98.4647 19.4194C98.6799 18.4443 99.1301 17.5131 99.5389 16.5909C100.08 15.3703 100.677 14.1743 101.266 12.9756C101.473 12.5529 101.961 12.4415 102.322 12.3953C103.348 12.2638 104.057 11.3001 105.147 11.3914C105.393 11.412 105.632 11.4347 105.692 11.7023C105.746 11.9374 105.797 12.208 105.558 12.3974C103.271 14.2103 102.951 16.8768 102.452 19.4806C102.277 20.3916 102.343 21.3019 102.262 22.208C101.912 26.154 102.723 29.9097 103.918 33.6382C104.425 35.2186 104.457 36.9272 105.012 38.5237C105.514 39.968 106.902 39.9876 107.96 40.4118C108.592 40.6654 109.177 39.7528 109.425 39.2035C109.889 38.1744 110.62 37.4761 111.49 36.8605C113.034 35.7684 113.61 34.0563 114.368 32.4483C115.392 30.2739 116.126 27.9966 116.8 25.701C117.657 22.7846 118.757 19.9505 119.605 17.0247C120.168 15.0814 120.006 12.9119 121.267 11.1613C121.477 10.8694 121.669 10.7692 121.976 10.8128C122.272 10.8549 122.373 11.0481 122.379 11.344C122.399 12.3658 122.271 13.3396 123.012 14.309C123.619 15.1032 122.758 16.0706 122.598 16.9699C122.174 19.3368 121.335 21.6026 120.969 23.9896C120.742 25.4739 120.073 26.8582 119.871 28.3802C119.57 30.6363 119.187 32.8786 119.239 35.1633C119.251 35.6583 121.047 35.8857 121.623 35.603C124.585 34.15 125.868 31.2563 127.611 28.7486C128.634 27.2771 129.822 25.939 130.34 24.1359C130.693 22.907 130.442 21.6734 130.705 20.4428C130.958 19.2603 130.688 18.0111 131.434 16.86C131.684 16.474 131.051 15.7218 131.123 15.0496C131.171 14.5939 131.258 14.3626 131.768 14.3623C132.26 14.362 132.337 14.5752 132.441 15.0233C132.613 15.7643 132.539 16.5755 133.273 17.1857C134.211 17.9655 133.762 19.2253 133.951 20.2486C134.302 22.151 134.572 24.0935 134.402 26.0566C134.308 27.1397 134.131 28.1804 133.375 29.1417C134.169 28.8301 134.872 28.5227 135.596 28.2776C136.398 28.0065 137.086 28.2106 137.364 29.0541C137.627 29.8503 137.336 30.4795 136.512 30.8108C135.906 31.0542 135.311 31.326 134.79 31.8105C135.715 31.4974 136.662 31.2373 137.558 30.8568C138.501 30.4567 139.436 30.2159 140.15 31.1107C140.695 31.7935 140.527 32.578 139.744 33.0289C138.76 33.5959 137.705 34.039 136.704 34.5807C136.206 34.8508 135.761 35.2216 135.302 35.6734C136.458 34.8852 137.227 36.0019 138.172 36.1735C138.874 36.3011 139.131 36.96 139.011 37.6448C138.897 38.3025 138.472 38.7077 137.763 38.7279C137.492 38.7357 137.219 38.7482 136.95 38.7259C135.83 38.6334 134.805 38.6145 134.44 40.054C134.317 40.5411 133.691 40.7322 133.256 41.0173C130.823 42.6093 128.672 44.5661 126.38 46.3361C124.628 47.6887 122.577 48.6608 120.631 49.7516C116.957 51.8111 113.096 53.4889 109.282 55.2619C108.935 55.423 108.587 55.6521 108.336 55.9351C107.065 57.3669 105.107 56.6365 103.635 57.486C101.463 58.7392 98.798 58.8852 96.7363 60.3469C95.6948 61.0853 95.0184 62.2814 94.0337 63.1577C92.2304 64.7626 90.1907 66.0412 88.301 67.5233C87.7396 67.9636 86.8889 67.6944 86.3431 68.227C86.2397 68.328 85.8762 68.5113 86.1488 68.581C87.2023 68.85 87.856 69.9763 89.1806 69.7471C90.5689 69.507 91.7701 69.9774 92.2532 71.5283C92.3833 71.9458 92.3635 72.3964 92.1472 72.6686C91.3543 73.6662 92.1777 73.8638 92.8073 73.9147C93.8683 74.0005 94.6788 75.3049 95.777 74.6714C96.4955 74.2569 97.112 73.7302 97.9913 73.7536C98.4725 73.7664 98.7121 73.8846 98.815 74.4878C98.8822 74.8816 99.6566 74.6328 99.9374 74.4899C100.552 74.1771 100.885 73.7995 101.672 74.4504C102.056 74.7678 103.261 74.2446 103.942 73.7038C104.743 73.0676 104.826 73.068 105.406 73.8609C105.441 73.9087 105.602 73.8612 105.704 73.8632C106.8 73.8845 107.965 73.2453 108.962 74.2835C109.128 74.4565 109.603 74.3313 109.935 74.3453C110.307 74.3609 110.642 74.5015 110.608 74.9127C110.539 75.7642 111.094 75.5031 111.439 75.3569C111.998 75.1206 112.415 74.6074 112.991 75.4761C113.244 75.8563 113.973 75.3653 114.471 75.2281C114.814 75.1334 115.208 75.2118 115.169 75.4727C115.062 76.2028 115.407 76.3713 116.106 76.3006C115.807 76.6615 115.181 76.3716 115.251 76.7866C115.316 77.1756 115.876 77.018 116.195 77.142C117.241 77.5479 118.257 77.8499 119.412 77.5481C119.779 77.4521 119.976 77.9602 119.894 78.3373C119.59 79.7366 120.675 79.0622 121.056 79.011C121.723 78.9214 122.256 78.6608 122.218 79.7151C122.214 79.8329 122.91 79.9674 123.275 80.1123C123.41 80.1662 123.668 80.138 123.608 80.3822C123.586 80.4705 123.388 80.5639 123.266 80.5689C123.009 80.5795 122.814 80.7441 122.841 80.9276C122.875 81.1523 123.117 81.2539 123.381 81.2528C124.167 81.2494 124.954 81.2433 125.738 81.2939C125.911 81.3051 126.266 81.2598 126.275 81.5924C126.283 81.8851 126.009 81.9904 125.788 82.1029C125.525 82.2366 125.255 82.3576 124.657 82.6414C126.38 82.5364 127.746 82.9264 129.108 82.4916C129.419 82.3923 129.691 82.5028 129.804 82.8442C129.95 83.2858 129.594 83.4543 129.316 83.581C129.026 83.7134 128.681 83.7279 128.334 83.7993C128.49 84.0676 128.636 84.2859 129.044 84.0603C129.189 83.9799 129.558 84.0141 129.621 84.1188C130.335 85.3064 131.998 85.2788 132.633 86.7375C133.178 87.9908 134.719 88.3517 135.919 88.9963C138.826 90.5577 142.097 90.5346 145.185 91.2827C149.851 92.4132 154.586 92.7186 159.387 92.0639C160.943 91.8517 162.569 92.1645 164.164 92.2124C164.968 92.2365 165.757 92.2398 166.549 91.922C168.193 91.2617 169.931 91.2148 171.692 91.2144C175.708 91.2136 179.765 90.717 183.709 91.6726C186.587 92.3697 189.629 92.3652 192.369 93.4569C194.782 94.4184 197.286 95.114 199.668 96.1707C201.534 96.9989 203.513 97.5881 205.289 98.6205C206.29 99.2027 207.415 99.6088 208.333 100.245C210.348 101.64 211.727 103.624 212.29 106.057C212.461 106.793 212.022 107.451 211.393 107.862C210.693 108.317 209.941 108.279 209.209 107.876C209.111 107.822 208.963 107.719 208.908 107.753C208.712 107.873 208.915 107.986 208.95 108.111C209.619 110.529 210.239 112.968 211.549 115.146C212.422 116.596 213.29 118.019 213.771 119.689C214.332 121.635 214.017 123.538 213.836 125.446C213.559 128.363 212.748 131.19 211.615 133.863C209.634 138.536 210.325 143.294 210.718 148.082C210.953 150.939 211.878 153.568 213.201 156.04C213.954 157.446 215.266 158.488 216.12 159.893C217.076 161.465 217.531 163.236 218.468 164.816C219.651 166.811 220.424 169.051 222.219 170.655C223.329 171.647 223.577 172.961 223.247 174.318C222.88 175.827 223.233 177.198 223.727 178.573C224.145 179.735 223.885 180.929 223.942 182.107C223.965 182.592 224.034 183.018 224.268 183.469C224.965 184.81 225.23 186.301 225.301 187.777C225.41 190.049 225.359 192.332 225.322 194.609C225.28 197.18 225.958 199.602 226.752 202.003C227.08 202.992 226.832 204.02 227.097 205.031C227.817 207.786 228.628 210.56 228.446 213.441C228.283 216.025 228.466 218.578 228.709 221.135C228.756 221.627 229.018 222.112 229.24 222.571C230.061 224.267 229.695 226.085 229.896 227.844C229.982 228.596 230.83 229.294 231.408 229.949C232.134 230.77 232.264 231.653 231.649 232.505C231.007 233.396 230.075 233.698 229.016 233.204C228.722 233.067 228.488 233.114 228.39 233.367C228.038 234.271 227.59 235.122 227.437 236.123C227.283 237.13 226.548 237.939 225.94 238.752C224.258 241.003 221.734 242.113 219.396 243.452C218.202 244.136 216.771 243.237 216.567 241.786C216.474 241.118 216.121 241.003 215.562 241.253C214.518 241.721 213.604 241.492 212.978 240.575C212.384 239.704 212.494 238.808 213.269 238.029C214.903 236.388 216.787 235.095 218.823 234.014C218.981 233.93 219.103 233.896 219.114 233.683C219.229 231.394 220.338 229.362 220.811 227.174C221.217 225.301 221.454 223.372 221.552 221.456C221.675 219.036 221.984 216.592 221.132 214.203C220.609 212.736 220.747 211.14 220.96 209.67C221.294 207.36 220.825 205.163 220.556 202.927C220.332 201.056 220.411 199.054 219.732 197.36C218.948 195.403 218.652 193.222 217.189 191.496C216.246 190.384 215.815 188.823 214.753 187.789C213.444 186.514 212.795 184.869 212.414 183.265C211.876 181.003 210.682 179.215 209.356 177.449C207.843 175.434 206.444 173.284 204.655 171.542C203.21 170.134 202.14 168.439 200.668 167.072C199.46 165.951 198.43 164.747 197.84 163.039C196.832 160.122 195.199 157.468 193.198 155.067C192.562 154.303 191.77 153.761 191.078 153.122C190.318 152.422 189.423 152.601 188.785 152.164C188.015 151.635 187.312 150.959 186.546 150.383C186.096 150.045 185.855 149.995 185.509 150.565C184.485 152.257 183.161 153.804 182.38 155.594C181.866 156.772 181.396 158.148 181.624 159.576C181.68 159.925 181.423 160.311 181.387 160.688C181.157 163.091 181.497 165.487 181.83 167.834C182.398 171.838 182.258 175.758 181.551 179.715C181.401 180.552 181.69 181.537 181.805 182.425C182.032 184.183 182.777 186.122 181.42 187.844C180.048 189.583 179.551 191.799 178.359 193.64C178.008 194.182 177.648 194.706 177.499 195.358C177.436 195.634 177.352 195.805 177.71 195.783C177.693 196.1 176.729 195.632 177.33 196.374C177.424 196.489 177.321 196.966 177.186 197.035C175.804 197.745 176.21 199.277 175.629 200.348C175.341 200.879 175.073 201.45 174.948 202.035C174.679 203.292 174.11 204.443 173.814 205.7C173.282 207.949 172.41 210.116 171.855 212.361C171.361 214.363 171.045 216.415 170.759 218.46C170.584 219.707 169.537 220.463 169.225 221.62C169.043 222.291 168.697 222.92 168.414 223.563C168.241 223.956 168.589 224.138 168.742 224.397C168.605 224.62 168.341 224.134 168.26 224.495C168.231 224.628 167.975 224.912 168.42 224.842C168.376 224.947 168.342 225.136 168.287 225.143C167.808 225.199 167.817 225.56 167.802 225.891C167.689 228.341 166.778 230.581 165.912 232.819C165.629 233.55 165.568 234.204 165.748 234.926C166.222 236.827 165.645 237.974 163.83 238.441C162.842 238.695 162.149 238.18 161.871 237.173C161.83 237.027 161.775 236.885 161.726 236.741C161.608 236.849 161.481 236.949 161.374 237.066C160.093 238.475 159.381 240.4 157.308 241.084C155.614 241.643 153.856 242.164 152.466 243.394C151.732 244.044 151.126 244.907 149.92 244.572C149.353 244.415 148.806 244.112 148.69 243.616C148.328 242.061 147.058 242.488 146.166 242.501C144.765 242.522 143.659 241.378 143.911 239.988C144.106 238.913 144.409 238.198 145.713 238.299C146.284 238.343 146.856 238.006 147.317 237.576C148.384 236.579 149.824 236.349 151.088 235.755C151.779 235.43 152.381 234.905 153 234.44C154.441 233.359 155.611 231.958 156.952 230.81C158.666 229.343 158.979 227.206 160.152 225.506C160.86 224.479 161.422 223.183 162.116 222.042C162.246 221.827 162.081 221.568 162.083 221.341C162.098 219.06 163.571 217.336 164.313 215.349C165.783 211.412 166.12 207.293 166.722 203.205C167.132 200.421 167.501 197.62 168.631 194.998C169.161 193.771 168.257 192.733 168.139 191.589C168.095 191.162 167.894 190.745 167.891 190.322C167.865 186.732 167.972 183.138 167.818 179.554C167.741 177.777 167.121 176.03 166.889 174.251C166.56 171.733 166.388 169.196 166.104 166.672C165.81 164.064 165.864 161.434 165.491 158.827C165.382 158.068 165.231 157.289 165.204 156.508C165.195 156.274 164.989 156.305 164.882 156.38C162.094 158.325 158.682 159.021 155.868 160.959C154.477 161.917 152.704 162.134 151.012 162.361C149.642 162.544 148.256 162.638 146.95 163.169C145.879 163.604 144.721 163.693 143.594 163.719C140.1 163.8 136.604 163.765 133.125 163.356C132.757 163.313 132.695 163.511 132.725 163.801C132.949 166.019 132.436 168.204 132.21 170.375C132.026 172.148 132.091 173.913 131.942 175.675C131.829 177.011 131.906 178.343 132.316 179.678C132.863 181.457 133.149 183.317 133.112 185.192C133.072 187.184 133.909 189.043 133.909 191.03C133.91 193.681 134.621 196.25 134.915 198.862C135.142 200.886 135.831 202.843 135.846 204.861C135.874 208.465 137.032 211.659 138.874 214.675C139.986 216.493 140.234 218.616 140.908 220.588C141.725 222.978 141.411 225.678 142.706 227.897C143.779 229.736 143.654 232.075 145.357 233.646C146.128 234.358 145.527 236.872 144.708 237.15C144.084 237.362 143.69 236.845 143.281 236.636C142.082 236.02 141.758 237.041 141.256 237.593C140.582 238.335 140.936 239.638 139.932 240.252C140.577 241.147 139.871 241.869 139.62 242.647C139.582 242.767 139.444 242.972 139.434 242.967C138.74 242.629 138.348 243.349 137.905 243.423C136.622 243.638 135.503 244.413 134.183 244.407C133.59 244.405 133.111 244.641 132.604 244.97C131.886 245.435 131.078 245.339 130.416 244.753C129.822 244.227 129.27 244.316 128.65 244.697C127.819 245.206 126.979 245.192 126.237 244.518C125.085 243.47 125.122 242.523 126.376 241.291C127.279 240.405 128.226 239.565 129.15 238.7C129.528 238.347 129.866 237.997 129.962 237.424C130.097 236.613 130.638 236.07 131.459 235.963C133.099 235.749 133.641 234.494 134.306 233.241C135.178 231.6 134.667 229.974 134.523 228.323C134.285 225.608 133.537 222.979 133.3 220.248C133.169 218.743 132.755 217.156 132.326 215.634C131.65 213.236 131.208 210.768 130.441 208.403C129.827 206.512 129.367 204.507 128.09 202.898C126.744 201.2 125.405 199.514 124.181 197.71C122.774 195.633 122.526 193.341 122.198 191.051C121.656 187.264 120.829 183.548 119.966 179.827C119.293 176.933 118.886 173.962 117.519 171.289C116.301 168.909 115.066 166.537 113.57 164.3C112.647 162.92 111.88 161.394 111.301 159.837C110.512 157.715 110.628 157.809 108.414 157.991C106.627 158.137 106.8 159.403 106.742 160.462C106.636 162.4 106.712 164.348 106.712 166.291C106.713 168.221 106.713 170.144 106.121 172.02C105.541 173.862 105.747 175.776 105.716 177.668C105.671 180.416 105.274 183.038 104.085 185.614C103.448 186.994 103.567 188.792 103.594 190.398C103.65 193.775 102.64 196.913 101.589 200.032C101.29 200.918 100.463 201.633 99.851 202.404C98.729 203.819 98.2259 205.466 98.2451 207.224C98.278 210.249 97.9408 213.198 97.3377 216.174C96.8478 218.592 97.0465 221.162 97.0365 223.626C97.0302 225.193 96.9368 226.725 96.7361 228.261C96.3631 231.116 96.4647 233.982 96.4652 236.845C96.4653 237.483 96.5912 238.121 96.6686 238.758C96.834 240.118 96.049 240.962 94.9706 241.454C94.3097 241.756 93.6001 241.168 93.2701 240.662C92.2089 239.036 91.2933 239.979 90.4473 240.768C89.9905 241.194 89.7283 241.846 89.4345 242.425C89.2459 242.797 89.8306 242.637 89.8432 242.935C89.6193 242.919 89.3338 242.796 89.2105 243.089C89.1022 243.346 89.3122 243.413 89.5046 243.508C89.5655 243.538 89.5876 243.818 89.5224 243.898C89.3794 244.071 89.3471 243.863 89.2892 243.774C88.5286 244.453 87.5009 243.783 86.6336 244.334C86.2541 244.575 85.4932 245.066 84.87 244.478C84.6847 244.304 84.6476 244.513 84.5679 244.574C82.9974 245.779 81.1816 245.822 79.5183 244.722C79.031 244.399 78.5722 244.656 78.1735 244.959C77.3348 245.596 76.4445 245.668 75.678 244.964C74.9476 244.293 74.5086 243.528 75.1336 242.408C76.0108 240.835 77.5779 240.257 78.9162 239.307C80.5924 238.117 82.8248 237.795 84.2132 236.427C85.8423 234.823 87.7853 233.34 88.2359 230.681C88.6071 228.489 89.6022 226.397 90.3878 224.286C90.6881 223.479 90.5404 222.66 90.6798 221.863C91.0659 219.654 91.5691 217.465 91.9151 215.25C92.2819 212.903 92.9851 210.476 92.6963 208.191C92.3504 205.454 92.3069 202.667 91.713 199.964C91.0991 197.169 91.5025 194.457 92.393 191.826C92.7203 190.859 93.0163 189.904 92.9905 188.924C92.9183 186.177 93.4071 183.393 92.4331 180.695C91.1248 177.071 90.7082 173.193 89.4209 169.572C88.3205 166.476 88.379 163.373 88.6343 160.185C88.7298 158.993 88.1548 157.758 88.1788 156.548C88.2059 155.186 87.3172 154.656 86.4389 154.072C84.859 153.023 83.5717 151.704 82.525 150.131C82.3804 149.914 82.1826 149.676 81.9539 149.579C79.9717 148.741 80.2523 146.9 80.0196 145.285C79.9044 144.485 79.6477 143.842 78.8814 143.351C78.2858 142.97 77.8133 142.314 77.435 141.69C76.3121 139.837 74.8309 138.345 73.2207 136.91C71.6309 135.493 70.7947 133.707 70.857 131.401C70.8992 129.839 70.5894 128.193 70.0699 126.647C69.98 126.38 69.9178 126.398 69.6985 126.472C68.4442 126.892 67.1744 126.27 66.7499 125.001C66.6458 124.689 66.4995 124.499 66.2131 124.374C64.6078 123.672 63.8074 122.365 63.4449 120.712C63.3526 120.291 63.1547 119.987 62.653 119.791C61.4474 119.318 61.0107 118.278 61.0685 117.036C61.0942 116.482 61.2016 116.063 60.4488 115.796C59.7636 115.553 59.8188 114.702 59.7229 114.052C59.6898 113.827 59.6984 113.497 59.4452 113.502C59.1318 113.507 59.2516 113.85 59.2314 114.058C58.9355 117.11 59.4963 120.232 58.5165 123.223C58.1125 124.456 57.5544 125.646 56.2803 126.223C55.844 126.42 56.0936 126.825 55.8137 127.08C55.0859 127.743 54.3209 127.223 53.6139 127.188C52.4372 127.13 51.6412 126.249 50.7479 125.534C49.8945 124.851 49.9606 124.017 49.7876 123.151C49.5106 121.763 48.4123 120.551 48.7862 119.029C49.1589 117.513 49.2982 115.988 49.2551 114.438C49.2344 113.692 49.148 113.116 48.197 112.843C46.1368 112.252 44.2614 111.214 42.5294 109.946C41.518 109.205 41.2991 107.953 40.7027 106.944C39.8382 105.481 39.6654 103.714 38.5536 102.335C37.9445 101.58 37.8014 100.528 37.0224 99.7845C35.8274 98.6444 34.3639 98.2099 32.8108 98.9489C31.534 99.5565 30.3887 100.43 29.4077 101.431C27.8543 103.014 26.3013 102.889 25.026 101.06C24.6204 100.478 24.1616 99.917 23.0393 100.075C21.2016 100.333 19.1458 100.7 17.7682 98.6843C17.4255 98.1829 16.8424 98.767 16.4347 98.9311C14.0495 99.8914 12.0282 98.5123 12.2258 96.0162C12.2787 95.3479 12.587 94.7766 12.9188 94.2332C13.9347 92.5693 13.5154 90.6093 14.0613 88.8642C15.2767 84.9787 16.9026 81.2905 20.4493 78.947C21.9884 77.9301 23.7721 77.2889 25.4181 76.4263C25.9698 76.1371 26.435 75.6845 26.9472 75.3171C27.9511 74.597 29.1615 74.814 30.2677 74.6836C34.0756 74.2347 37.9097 73.9988 41.7087 73.4932C42.3509 73.4077 43.2382 73.2959 43.8256 72.6781C44.1467 72.3403 44.6398 72.255 45.108 72.295C46.8022 72.4397 47.6623 70.9979 48.9144 70.3045C48.9644 70.2768 48.9678 70.165 48.9929 70.0924C48.8758 70.0665 48.7579 70.0439 48.6418 70.0143C46.2373 69.4019 43.7003 69.5468 41.3321 68.7478C40.6061 68.5029 39.9731 68.2043 39.1326 68.5109C37.817 68.9908 36.9813 67.5655 35.7977 67.4453C32.5732 67.1178 29.5536 65.7404 26.2486 65.7419C23.2871 65.7433 21.1956 63.8936 19.1749 61.9525C17.3255 60.1758 15.5829 58.3628 14.5434 55.9553C14.0744 54.8692 13.9721 53.7404 13.9385 52.6224C13.8522 49.7509 13.5198 46.8125 15.0461 44.1622C15.7746 42.8972 15.3283 41.5126 15.6202 40.1987C15.8701 39.0737 16.8869 38.3812 17.0216 37.2832C17.1678 36.0904 17.8312 36.3705 18.4631 36.7186C18.9073 36.9634 18.8714 37.5488 18.5715 37.7984C18.0044 38.2702 18.0481 38.7386 18.1081 39.3969C18.2512 40.9666 18.1706 42.5482 17.8661 44.1071C17.8188 44.3493 17.753 44.5949 17.7544 44.8386C17.7628 46.3321 17.7797 47.82 17.3574 49.2797C17.0465 50.3546 17.8603 51.2051 18.0274 52.1936C18.3788 54.272 19.6896 55.8175 21.2853 56.962C22.548 57.8676 24.1465 58.3048 25.6006 58.939C25.67 58.9693 25.866 58.8934 25.8664 58.8651C25.8679 58.7461 25.8536 58.5945 25.7806 58.5119C25.1563 57.8054 24.723 56.9117 23.7603 56.5358C23.3003 56.3562 23.0961 55.881 22.7887 55.5183C19.7124 51.888 19.7438 47.6246 20.1574 43.2382C20.2868 41.8663 21.0473 40.7346 21.2722 39.4129C21.3807 38.776 21.9673 38.5362 22.5874 38.644C23.2771 38.7638 23.6709 39.3031 23.641 39.9349C23.4698 43.5488 24.2547 47.0049 25.221 50.4439C25.4045 51.0967 25.9071 51.2423 26.3837 51.5157C27.1541 51.9577 27.8954 52.451 28.6445 52.9297C28.9947 53.1535 29.314 53.1799 29.6805 52.9308C30.0629 52.6709 30.0859 52.2935 30.1227 51.9074C30.1379 51.7481 30.0834 51.5705 30.135 51.4282C30.806 49.5794 30.476 48.0106 28.9319 46.7143C27.4843 45.4989 26.8922 43.7797 26.4098 42.0425C25.7678 39.7309 24.4898 37.5698 24.7256 35.0433C24.814 34.0965 24.8692 33.1465 24.9291 32.1974C24.9508 31.8533 25.1519 31.6577 25.4512 31.7351C25.857 31.84 26.3952 31.7678 26.5857 32.2898C27.0055 33.4404 27.1063 34.8725 27.8686 35.6981C29.3737 37.3282 29.651 39.4414 30.6307 41.2547C30.6766 41.3396 30.7542 41.4072 30.817 41.4829C30.8899 41.3915 30.9782 41.3084 31.0332 41.2072C31.4799 40.3854 31.3972 39.4422 31.6284 38.5695C31.8663 37.6715 32.1101 36.7208 33.3029 36.8741C34.3643 37.0106 34.658 37.7821 34.716 38.8147C34.846 41.1342 34.3989 43.4065 34.3036 45.7046C34.2914 45.9975 34.282 46.2383 34.6631 46.3883C35.8048 46.8379 37.0714 47.0695 38.0446 46.4161C38.6474 46.0114 39.4117 45.3246 39.5098 44.3554C39.7244 42.2333 38.8536 40.3028 38.5243 38.282C38.2389 36.5314 37.4819 34.5987 38.8652 32.8756C39.1 32.5832 38.7312 31.8323 39.5239 31.9446C40.1791 32.0374 40.0032 32.6987 40.2422 33.0637C41.5149 35.008 41.2351 37.307 41.8326 39.393C42.0522 40.1597 42.5665 40.8975 43.2892 41.343C44.1565 41.8776 44.8549 42.548 45.3496 43.4322C45.7614 44.1682 46.1246 43.4863 46.4807 43.3805C48.192 42.872 48.39 42.3115 47.7312 40.6856C46.804 38.3972 46.7027 35.9704 46.85 33.5437C46.8951 32.8013 47.5163 32.462 48.2608 32.5257C49.0135 32.5902 49.3668 33.0493 49.4798 33.7875C49.6771 35.0771 49.457 36.4548 50.2499 37.6247ZM68.2966 58.3638C68.0552 56.3738 68.5655 54.5292 69.7634 53.0644C70.9231 51.6465 71.3307 50.078 71.5787 48.359C71.353 48.4519 71.1174 48.5025 70.9367 48.6307C69.7519 49.4708 68.4843 50.1298 67.0588 50.4482C65.8788 50.7117 65.6102 51.369 66.001 52.4981C66.41 53.6797 66.6534 54.9092 66.8771 56.1503C67.0097 56.8856 67.1661 57.9774 68.2966 58.3638ZM55.3173 64.3528C54.0824 62.8716 52.6197 61.6244 52.384 59.5514C52.3071 58.8749 51.9227 58.2335 51.6789 57.5761C51.1311 57.8508 50.882 58.4001 50.5162 58.8423C50.4897 58.8743 50.4419 58.8959 50.4296 58.9313C50.1545 59.725 49.029 60.492 49.8159 61.3135C50.6168 62.1497 51.7824 62.6337 51.6722 64.0612C51.6703 64.0858 51.7258 64.1257 51.7619 64.1406C52.9344 64.6249 54.123 64.8072 55.3173 64.3528Z" fill="white"/>
</svg>
